<svg width="258" height="265" viewBox="0 0 258 265" fill="none" xmlns="http://www.w3.org/2000/svg">
<g filter="url(#filter0_d_306_2678)">
<path fill-rule="evenodd" clip-rule="evenodd" d="M227.403 33.8055C199.129 7.4395 154.834 8.9863 128.468 37.2604L122.545 43.6127C151.152 19.4762 193.934 19.9855 221.992 46.1499C239.955 62.9004 247.849 86.4048 245.41 109.08C254.783 83.4537 248.614 53.5848 227.403 33.8055Z" fill="white"/>
</g>
<g filter="url(#filter1_d_306_2678)">
<circle cx="146.5" cy="91.5" r="22.5" fill="white"/>
</g>
<g filter="url(#filter2_d_306_2678)">
<path fill-rule="evenodd" clip-rule="evenodd" d="M135.46 150.378C160.657 148.925 180.416 129.056 182.417 104.601C184.69 105.743 187.284 106.322 190.006 106.165C193.601 105.958 196.827 104.501 199.287 102.24C199.553 103.827 199.735 105.441 199.829 107.078C201.419 134.646 177.507 158.448 146.421 160.24C120.532 161.733 97.8323 147.49 90.0472 126.762C99.3942 141.848 116.497 151.471 135.46 150.378Z" fill="white"/>
<path fill-rule="evenodd" clip-rule="evenodd" d="M105.2 44.1354C112.093 36.7439 119.843 30.631 128.154 25.8071C102.958 13.7931 71.912 17.6151 50.2604 37.8056C21.9863 64.1716 20.4395 108.466 46.8055 136.74L87.7254 180.621C100.71 194.546 118.043 201.988 135.669 202.806C126.54 198.498 117.913 192.724 110.135 185.471C98.5427 174.66 90.0952 161.74 84.8329 147.857C70.8275 140.8 59.4239 127.771 54.3814 110.959C49.8846 95.9673 51.2667 80.7016 57.1573 67.9277C56.8417 74.7446 57.6612 81.7809 59.7539 88.7579C63.2949 100.563 69.9727 110.504 78.4856 117.821C77.0484 91.6011 85.877 64.8567 105.2 44.1354Z" fill="white"/>
</g>
<path fill-rule="evenodd" clip-rule="evenodd" d="M138.604 131.914C156.833 135.93 175.351 123.622 182.285 103.854C183.643 105.267 185.355 106.282 187.325 106.716C189.935 107.291 192.565 106.751 194.828 105.383C194.644 106.751 194.402 108.125 194.098 109.503C189.014 132.583 168.722 147.731 148.777 143.337C139.172 141.221 131.399 134.96 126.489 126.459C130.061 129.047 134.134 130.93 138.604 131.914Z" fill="white"/>
<g filter="url(#filter3_d_306_2678)">
<path d="M48.4 249.28C46.4533 249.28 44.6933 248.947 43.12 248.28C41.5733 247.613 40.3467 246.653 39.44 245.4C38.5333 244.147 38.0667 242.667 38.04 240.96H44.04C44.12 242.107 44.52 243.013 45.24 243.68C45.9867 244.347 47 244.68 48.28 244.68C49.5867 244.68 50.6133 244.373 51.36 243.76C52.1067 243.12 52.48 242.293 52.48 241.28C52.48 240.453 52.2267 239.773 51.72 239.24C51.2133 238.707 50.5733 238.293 49.8 238C49.0533 237.68 48.0133 237.333 46.68 236.96C44.8667 236.427 43.3867 235.907 42.24 235.4C41.12 234.867 40.1467 234.08 39.32 233.04C38.52 231.973 38.12 230.56 38.12 228.8C38.12 227.147 38.5333 225.707 39.36 224.48C40.1867 223.253 41.3467 222.32 42.84 221.68C44.3333 221.013 46.04 220.68 47.96 220.68C50.84 220.68 53.1733 221.387 54.96 222.8C56.7733 224.187 57.7733 226.133 57.96 228.64H51.8C51.7467 227.68 51.3333 226.893 50.56 226.28C49.8133 225.64 48.8133 225.32 47.56 225.32C46.4667 225.32 45.5867 225.6 44.92 226.16C44.28 226.72 43.96 227.533 43.96 228.6C43.96 229.347 44.2 229.973 44.68 230.48C45.1867 230.96 45.8 231.36 46.52 231.68C47.2667 231.973 48.3067 232.32 49.64 232.72C51.4533 233.253 52.9333 233.787 54.08 234.32C55.2267 234.853 56.2133 235.653 57.04 236.72C57.8667 237.787 58.28 239.187 58.28 240.92C58.28 242.413 57.8933 243.8 57.12 245.08C56.3467 246.36 55.2133 247.387 53.72 248.16C52.2267 248.907 50.4533 249.28 48.4 249.28ZM71.255 231.44V242.16C71.255 242.907 71.4283 243.453 71.775 243.8C72.1483 244.12 72.7617 244.28 73.615 244.28H76.215V249H72.695C67.975 249 65.615 246.707 65.615 242.12V231.44H62.975V226.84H65.615V221.36H71.255V226.84H76.215V231.44H71.255ZM102.763 226.84V249H97.1228V246.2C96.4028 247.16 95.4561 247.92 94.2828 248.48C93.1361 249.013 91.8828 249.28 90.5228 249.28C88.7895 249.28 87.2561 248.92 85.9228 248.2C84.5895 247.453 83.5361 246.373 82.7628 244.96C82.0161 243.52 81.6428 241.813 81.6428 239.84V226.84H87.2428V239.04C87.2428 240.8 87.6828 242.16 88.5628 243.12C89.4428 244.053 90.6428 244.52 92.1628 244.52C93.7095 244.52 94.9228 244.053 95.8028 243.12C96.6828 242.16 97.1228 240.8 97.1228 239.04V226.84H102.763ZM122.168 226.52C124.808 226.52 126.941 227.36 128.568 229.04C130.195 230.693 131.008 233.013 131.008 236V249H125.408V236.76C125.408 235 124.968 233.653 124.088 232.72C123.208 231.76 122.008 231.28 120.488 231.28C118.941 231.28 117.715 231.76 116.808 232.72C115.928 233.653 115.488 235 115.488 236.76V249H109.888V226.84H115.488V229.6C116.235 228.64 117.181 227.893 118.328 227.36C119.501 226.8 120.781 226.52 122.168 226.52ZM144.453 231.44V242.16C144.453 242.907 144.627 243.453 144.973 243.8C145.347 244.12 145.96 244.28 146.813 244.28H149.413V249H145.893C141.173 249 138.813 246.707 138.813 242.12V231.44H136.173V226.84H138.813V221.36H144.453V226.84H149.413V231.44H144.453ZM160.761 244.28H173.321V249H154.281V244.68L166.761 225.8H154.281V221.08H173.321V225.4L160.761 244.28ZM182.528 224.2C181.541 224.2 180.715 223.893 180.048 223.28C179.408 222.64 179.088 221.853 179.088 220.92C179.088 219.987 179.408 219.213 180.048 218.6C180.715 217.96 181.541 217.64 182.528 217.64C183.515 217.64 184.328 217.96 184.968 218.6C185.635 219.213 185.968 219.987 185.968 220.92C185.968 221.853 185.635 222.64 184.968 223.28C184.328 223.893 183.515 224.2 182.528 224.2ZM185.288 226.84V249H179.688V226.84H185.288ZM198.021 219.4V249H192.421V219.4H198.021ZM210.754 219.4V249H205.154V219.4H210.754ZM216.447 237.84C216.447 235.6 216.887 233.613 217.767 231.88C218.673 230.147 219.887 228.813 221.407 227.88C222.953 226.947 224.673 226.48 226.567 226.48C228.22 226.48 229.66 226.813 230.887 227.48C232.14 228.147 233.14 228.987 233.887 230V226.84H239.527V249H233.887V245.76C233.167 246.8 232.167 247.667 230.887 248.36C229.633 249.027 228.18 249.36 226.527 249.36C224.66 249.36 222.953 248.88 221.407 247.92C219.887 246.96 218.673 245.613 217.767 243.88C216.887 242.12 216.447 240.107 216.447 237.84ZM233.887 237.92C233.887 236.56 233.62 235.4 233.087 234.44C232.553 233.453 231.833 232.707 230.927 232.2C230.02 231.667 229.047 231.4 228.007 231.4C226.967 231.4 226.007 231.653 225.127 232.16C224.247 232.667 223.527 233.413 222.967 234.4C222.433 235.36 222.167 236.507 222.167 237.84C222.167 239.173 222.433 240.347 222.967 241.36C223.527 242.347 224.247 243.107 225.127 243.64C226.033 244.173 226.993 244.44 228.007 244.44C229.047 244.44 230.02 244.187 230.927 243.68C231.833 243.147 232.553 242.4 233.087 241.44C233.62 240.453 233.887 239.28 233.887 237.92Z" fill="white"/>
</g>
<defs>
<filter id="filter0_d_306_2678" x="122.545" y="15" width="135.119" height="102.08" filterUnits="userSpaceOnUse" color-interpolation-filters="sRGB">
<feFlood flood-opacity="0" result="BackgroundImageFix"/>
<feColorMatrix in="SourceAlpha" type="matrix" values="0 0 0 0 0 0 0 0 0 0 0 0 0 0 0 0 0 0 127 0" result="hardAlpha"/>
<feOffset dx="4" dy="4"/>
<feGaussianBlur stdDeviation="2"/>
<feComposite in2="hardAlpha" operator="out"/>
<feColorMatrix type="matrix" values="0 0 0 0 0 0 0 0 0 0 0 0 0 0 0 0 0 0 0.11 0"/>
<feBlend mode="normal" in2="BackgroundImageFix" result="effect1_dropShadow_306_2678"/>
<feBlend mode="normal" in="SourceGraphic" in2="effect1_dropShadow_306_2678" result="shape"/>
</filter>
<filter id="filter1_d_306_2678" x="124" y="69" width="53" height="53" filterUnits="userSpaceOnUse" color-interpolation-filters="sRGB">
<feFlood flood-opacity="0" result="BackgroundImageFix"/>
<feColorMatrix in="SourceAlpha" type="matrix" values="0 0 0 0 0 0 0 0 0 0 0 0 0 0 0 0 0 0 127 0" result="hardAlpha"/>
<feOffset dx="4" dy="4"/>
<feGaussianBlur stdDeviation="2"/>
<feComposite in2="hardAlpha" operator="out"/>
<feColorMatrix type="matrix" values="0 0 0 0 0 0 0 0 0 0 0 0 0 0 0 0 0 0 0.11 0"/>
<feBlend mode="normal" in2="BackgroundImageFix" result="effect1_dropShadow_306_2678"/>
<feBlend mode="normal" in="SourceGraphic" in2="effect1_dropShadow_306_2678" result="shape"/>
</filter>
<filter id="filter2_d_306_2678" x="28" y="19.0001" width="179.904" height="191.806" filterUnits="userSpaceOnUse" color-interpolation-filters="sRGB">
<feFlood flood-opacity="0" result="BackgroundImageFix"/>
<feColorMatrix in="SourceAlpha" type="matrix" values="0 0 0 0 0 0 0 0 0 0 0 0 0 0 0 0 0 0 127 0" result="hardAlpha"/>
<feOffset dx="4" dy="4"/>
<feGaussianBlur stdDeviation="2"/>
<feComposite in2="hardAlpha" operator="out"/>
<feColorMatrix type="matrix" values="0 0 0 0 0 0 0 0 0 0 0 0 0 0 0 0 0 0 0.11 0"/>
<feBlend mode="normal" in2="BackgroundImageFix" result="effect1_dropShadow_306_2678"/>
<feBlend mode="normal" in="SourceGraphic" in2="effect1_dropShadow_306_2678" result="shape"/>
</filter>
<filter id="filter3_d_306_2678" x="38.04" y="217.64" width="209.487" height="39.72" filterUnits="userSpaceOnUse" color-interpolation-filters="sRGB">
<feFlood flood-opacity="0" result="BackgroundImageFix"/>
<feColorMatrix in="SourceAlpha" type="matrix" values="0 0 0 0 0 0 0 0 0 0 0 0 0 0 0 0 0 0 127 0" result="hardAlpha"/>
<feOffset dx="4" dy="4"/>
<feGaussianBlur stdDeviation="2"/>
<feComposite in2="hardAlpha" operator="out"/>
<feColorMatrix type="matrix" values="0 0 0 0 0 0 0 0 0 0 0 0 0 0 0 0 0 0 0.11 0"/>
<feBlend mode="normal" in2="BackgroundImageFix" result="effect1_dropShadow_306_2678"/>
<feBlend mode="normal" in="SourceGraphic" in2="effect1_dropShadow_306_2678" result="shape"/>
</filter>
</defs>
</svg>
